<svg xmlns="http://www.w3.org/2000/svg" width="21.85" height="16.507" viewBox="0 0 21.85 16.507">
  <path id="패스_688" data-name="패스 688" d="M-3754.379-3759.988a1.444,1.444,0,0,0-.513-.986,1.456,1.456,0,0,0-.933-.34,1.45,1.45,0,0,0-1.113.519l-10.3,12.28-6.4-7.646-.01-.017-.019-.018a1.449,1.449,0,0,0-1.1-.506,1.456,1.456,0,0,0-.933.339,1.443,1.443,0,0,0-.513.986,1.442,1.442,0,0,0,.334,1.06l7.523,8.992a1.451,1.451,0,0,0,1.052.517h.13a1.449,1.449,0,0,0,1.052-.517l.013-.017,11.382-13.564.015-.013.015-.021A1.443,1.443,0,0,0-3754.379-3759.988Z" transform="translate(3776.223 3761.314)" fill="#fff"/>
</svg>
