<svg xmlns="http://www.w3.org/2000/svg" xmlns:xlink="http://www.w3.org/1999/xlink" width="33" height="22" viewBox="0 0 33 22">
  <defs>
    <clipPath id="clip-path">
      <rect id="사각형_486" data-name="사각형 486" width="23" height="6" transform="translate(506 504)" fill="#fff" stroke="#707070" stroke-width="1"/>
    </clipPath>
  </defs>
  <g id="그룹_1719" data-name="그룹 1719" transform="translate(-498 -517)">
    <g id="그룹_1718" data-name="그룹 1718" transform="translate(39.355 -25.872)">
      <g id="그룹_1696" data-name="그룹 1696" transform="translate(1345.713 26.463)">
        <path id="패스_720" data-name="패스 720" d="M-854.223,526.8a19.714,19.714,0,0,0-6.889-7.615,17.622,17.622,0,0,0-9.456-2.775,17.622,17.622,0,0,0-9.456,2.775,19.616,19.616,0,0,0-6.884,7.607,1.289,1.289,0,0,0,0,1.236,19.619,19.619,0,0,0,6.889,7.607,17.634,17.634,0,0,0,9.456,2.775,17.634,17.634,0,0,0,9.456-2.775,19.678,19.678,0,0,0,6.884-7.6A1.289,1.289,0,0,0-854.223,526.8Zm-11,8.12a8.941,8.941,0,0,0,.808-.77.56.56,0,0,0,.045-.042,9.816,9.816,0,0,0,2.563-6.7,9.784,9.784,0,0,0-2.563-6.687,9.176,9.176,0,0,0-.858-.817,15.743,15.743,0,0,1,2.936,1.47,17.024,17.024,0,0,1,5.7,6.034,17.045,17.045,0,0,1-5.7,6.048A15.535,15.535,0,0,1-865.224,534.919Zm-5.344-14.463a6.708,6.708,0,0,1,6.42,6.95,7.2,7.2,0,0,1-1.883,4.922,6.2,6.2,0,0,1-4.537,2.033,6.167,6.167,0,0,1-4.541-2.037.468.468,0,0,0-.061-.05A7.269,7.269,0,0,1-877,527.407,6.713,6.713,0,0,1-870.568,520.457Zm-5.355-.549a9.315,9.315,0,0,0-.842.794.325.325,0,0,0-.053.073,9.8,9.8,0,0,0-2.511,6.632,9.821,9.821,0,0,0,2.522,6.658c.013.017.026.035.04.052a9.753,9.753,0,0,0,.846.8,15.811,15.811,0,0,1-2.934-1.463,17.17,17.17,0,0,1-5.689-6.048,17.069,17.069,0,0,1,5.689-6.034A15.834,15.834,0,0,1-875.923,519.908Z" transform="translate(0 0)"/>
      </g>
    </g>
    <g id="마스크_그룹_1" data-name="마스크 그룹 1" transform="translate(-3 23)" clip-path="url(#clip-path)">
      <g id="타원_17" data-name="타원 17" transform="translate(509 500)" fill="none" stroke="#000" stroke-width="2">
        <ellipse cx="8.5" cy="4" rx="8.5" ry="4" stroke="none"/>
        <ellipse cx="8.5" cy="4" rx="7.5" ry="3" fill="none"/>
      </g>
    </g>
  </g>
</svg>
