<svg id="그룹_1705" data-name="그룹 1705" xmlns="http://www.w3.org/2000/svg" xmlns:xlink="http://www.w3.org/1999/xlink" width="29.801" height="23.842" viewBox="0 0 29.801 23.842">
  <defs>
    <clipPath id="clip-path">
      <rect id="사각형_482" data-name="사각형 482" width="29.801" height="23.842" fill="#fff"/>
    </clipPath>
  </defs>
  <g id="그룹_1704" data-name="그룹 1704" clip-path="url(#clip-path)">
    <path id="패스_722" data-name="패스 722" d="M29.8,22.742V5.477a1.251,1.251,0,0,0-.01-.152,1.233,1.233,0,0,0-1.232-1.208H22.224L19.708.76a1.233,1.233,0,0,0-.987-.494H11.054a1.233,1.233,0,0,0-.987.494L7.551,4.117H1.242A1.233,1.233,0,0,0,.01,5.325,1.251,1.251,0,0,0,0,5.477s0,0,0,0V22.852s0,0,0,.005A1.242,1.242,0,0,0,1.243,24.1H28.559A1.242,1.242,0,0,0,29.8,22.857c0-.039,0-.077-.005-.115M8.168,6.583a1.233,1.233,0,0,0,.987-.494L11.67,2.732H18.1L20.621,6.09a1.233,1.233,0,0,0,.987.494h5.7V21.615H2.484V6.583Z" transform="translate(0 -0.257)" fill="#fff"/>
    <path id="패스_723" data-name="패스 723" d="M1.281,2.485H5.012A1.242,1.242,0,1,0,5.012,0H1.281a1.242,1.242,0,1,0,0,2.484" transform="translate(-0.038 -0.001)" fill="#fff"/>
    <path id="패스_724" data-name="패스 724" d="M243.6,191.739a6.905,6.905,0,1,0-6.905-6.905,6.913,6.913,0,0,0,6.905,6.905m0-11.345a4.439,4.439,0,1,1-4.439,4.439,4.444,4.444,0,0,1,4.439-4.439" transform="translate(-228.702 -171.918)" fill="#fff"/>
    <path id="패스_725" data-name="패스 725" d="M374.1,317.677a2.343,2.343,0,1,0-2.343-2.343,2.343,2.343,0,0,0,2.343,2.343" transform="translate(-359.201 -302.418)" fill="#fff"/>
    <path id="패스_726" data-name="패스 726" d="M689.607,221.052a1.577,1.577,0,1,0-1.577-1.577,1.577,1.577,0,0,0,1.577,1.577" transform="translate(-664.789 -210.539)" fill="#fff"/>
  </g>
</svg>
