<svg id="그룹_1708" data-name="그룹 1708" xmlns="http://www.w3.org/2000/svg" xmlns:xlink="http://www.w3.org/1999/xlink" width="26.221" height="26.221" viewBox="0 0 26.221 26.221">
  <defs>
    <clipPath id="clip-path">
      <rect id="사각형_483" data-name="사각형 483" width="26.221" height="26.221" fill="#fff"/>
    </clipPath>
  </defs>
  <g id="그룹_1707" data-name="그룹 1707" clip-path="url(#clip-path)">
    <path id="패스_727" data-name="패스 727" d="M13.11,26.221a13.114,13.114,0,0,1-5.1-25.19A13.113,13.113,0,0,1,18.214,25.19a13.03,13.03,0,0,1-5.1,1.031m0-24.06A10.95,10.95,0,1,0,24.06,13.11,10.962,10.962,0,0,0,13.11,2.161" transform="translate(0 0)" fill="#fff"/>
    <path id="패스_728" data-name="패스 728" d="M168.568,191.363a5.034,5.034,0,0,0-4.583-5.011,6.474,6.474,0,0,0-4.048-11.526h0a6.474,6.474,0,0,0-4.048,11.526,5.034,5.034,0,0,0-4.583,5.011v0c0,.01,0,.019,0,.029s0,.013,0,.02h0q0,.017,0,.033h0a.716.716,0,0,0,.155.367h0l.019.023,0,0,.019.02,0,0,.018.018.006.006.018.016.007.006.018.015.009.007.018.013.01.007.018.012.011.007.018.011.012.007.018.01.013.007.017.009.014.006.017.007.015.006.017.007.016.005.017.006.016,0,.017,0,.017,0,.017,0,.019,0,.016,0,.02,0,.015,0,.023,0h.049a.855.855,0,0,0,.677-.259.831.831,0,0,0,.2-.5,3.607,3.607,0,0,1,.915-2.508,3.566,3.566,0,0,1,2.293-1.033l.03,0,.04,0,.057,0h7.406l.057,0,.041,0,.03,0a3.566,3.566,0,0,1,2.293,1.033,3.607,3.607,0,0,1,.915,2.508.831.831,0,0,0,.2.5.855.855,0,0,0,.677.259h.049l.023,0,.015,0,.02,0,.016,0,.019,0,.017,0,.017,0,.017,0,.016,0,.017-.006.016-.005.017-.007.015-.006.017-.007.014-.006.017-.009.013-.007.018-.01.012-.007.018-.011.011-.007.018-.012.01-.007.018-.013.009-.007.018-.015.007-.006.018-.016.006-.006.018-.018,0,0,.019-.02,0,0,.019-.023h0a.716.716,0,0,0,.155-.367h0q0-.017,0-.033h0q0-.01,0-.02c0-.01,0-.019,0-.029s0,0,0,0m-8.631-5.032h0a5.034,5.034,0,1,1,0-10.068h0a5.034,5.034,0,0,1,0,10.068" transform="translate(-146.825 -169.65)" fill="#fff"/>
  </g>
</svg>
