<svg xmlns="http://www.w3.org/2000/svg" width="152.418" height="62.218" viewBox="0 0 152.418 62.218">
  <g id="그룹_1660" data-name="그룹 1660" transform="translate(165.887 -733.843)">
    <g id="그룹_1014" data-name="그룹 1014" transform="translate(-165.887 733.843)">
      <g id="그룹_1013" data-name="그룹 1013" transform="translate(49.652)">
        <path id="패스_271" data-name="패스 271" d="M-42.024,733.843a24.033,24.033,0,0,0-24.024,24.044A24.034,24.034,0,0,0-42,781.911,24.034,24.034,0,0,0-17.98,757.866,24.034,24.034,0,0,0-42.024,733.843ZM-42,778.214A20.337,20.337,0,0,1-62.35,757.886,20.338,20.338,0,0,1-42.022,737.54a20.337,20.337,0,0,1,20.344,20.328A20.336,20.336,0,0,1-42,778.214Z" transform="translate(66.048 -733.843)" fill="#fff"/>
        <path id="패스_272" data-name="패스 272" d="M-1.979,778.441a1.844,1.844,0,0,0-1.508.784h0a3.247,3.247,0,0,1-1.261,1.066,3.224,3.224,0,0,1-1.387.312,3.211,3.211,0,0,1-1.385-.311,3.24,3.24,0,0,1-1.26-1.061h0a1.845,1.845,0,0,0-1.513-.787,1.848,1.848,0,0,0-1.848,1.849,1.835,1.835,0,0,0,.309,1.021c.007.012.016.025.025.039a.033.033,0,0,0,.008.009A6.923,6.923,0,0,0-6.135,784.3a6.922,6.922,0,0,0,5.667-2.945h0a.39.39,0,0,0,.031-.043,1.854,1.854,0,0,0,.31-1.023A1.851,1.851,0,0,0-1.979,778.441Z" transform="translate(38.952 -756.262)" fill="#fff"/>
      </g>
      <path id="패스_273" data-name="패스 273" d="M-162.367,748.846q2.655,0,2.655,1.29l.015,30.195q0,1.343-2.771,1.343h-.808q-2.6,0-2.6-1.185l-.013-30.454q0-1.186,2.711-1.188Z" transform="translate(165.887 -741.385)" fill="#fff"/>
      <path id="패스_274" data-name="패스 274" d="M-123.363,781.989a4.137,4.137,0,0,1-2.983-1.186,11.653,11.653,0,0,1-2.165-2.941q-1.348-2.682-3.016-6.193t-3.248-7.173q-1.584-3.664-2.987-7.147t-2.226-6.116a1.278,1.278,0,0,1,.673-1.678,12.049,12.049,0,0,1,2.25-.9,5.232,5.232,0,0,1,1.7-.285q.7.026,1.172,1.213,1.4,3.456,2.78,6.785t2.841,6.683q1.462,3.355,3.015,6.785t3.308,7.1q1.46-3.149,3.067-6.737t3.1-7.1q1.488-3.51,2.775-6.685t2.16-5.6c.507-1.342,1.382-1.807,2.632-1.395a2.87,2.87,0,0,1,1.14.645q.38.387.029,1.419-.933,2.892-2.189,6.247t-2.746,6.814q-1.49,3.459-3.069,6.84t-3.154,6.324c-.275.517-.575,1.033-.905,1.55a9.7,9.7,0,0,1-1.083,1.394,4.8,4.8,0,0,1-1.285.981A3.408,3.408,0,0,1-123.363,781.989Z" transform="translate(152.913 -741.143)" fill="#fff"/>
      <path id="패스_275" data-name="패스 275" d="M49.67,749.025a29.881,29.881,0,0,1,6.347.618,13.938,13.938,0,0,1,4.816,1.933,9.005,9.005,0,0,1,3.039,3.379,10.66,10.66,0,0,1,1.073,4.955,12.647,12.647,0,0,1-1.359,6.272,9.659,9.659,0,0,1-3.6,3.692L65.1,779.42q.58,1.032-1.556,2.272c-.162.1-.358.223-.582.362a4.016,4.016,0,0,1-.705.336,1.264,1.264,0,0,1-.707.053.941.941,0,0,1-.584-.491l-5.6-10.527a18.592,18.592,0,0,1-3.427.208,30.121,30.121,0,0,1-3.528-.309l.005,9.911a1.126,1.126,0,0,1-.437.955,2.66,2.66,0,0,1-1.556.336H45.309q-2.236,0-2.236-1.186l-.014-30.5a1.616,1.616,0,0,1,.558-1.42,2.968,2.968,0,0,1,1.678-.388Zm-1.4,19.512a21.575,21.575,0,0,0,6.395-.751,8.08,8.08,0,0,0,3.45-1.962,5.112,5.112,0,0,0,1.384-2.737,19.7,19.7,0,0,0,.243-3.122,10.164,10.164,0,0,0-.681-4,5.586,5.586,0,0,0-2.094-2.5,9.19,9.19,0,0,0-3.573-1.289,31.694,31.694,0,0,0-5.13-.359Z" transform="translate(60.854 -741.475)" fill="#fff"/>
      <path id="패스_276" data-name="패스 276" d="M101.768,759.468q0,4.8,1.229,7.07t4.591,2.27a6.722,6.722,0,0,0,3.317-.7,4.6,4.6,0,0,0,1.863-1.937,8.372,8.372,0,0,0,.819-2.942,36.4,36.4,0,0,0,.178-3.768l0-10.375q0-1.135,2.182-1.136h.682q2,0,2,1.187l0,10.53a28.834,28.834,0,0,1-.315,4.516,9.084,9.084,0,0,1-1.226,3.433,6.61,6.61,0,0,1-2.566,2.324,12.466,12.466,0,0,1-4.384,1.189l0,9.29q0,1.341-2.182,1.343h-.637q-2.046,0-2.045-1.186l0-9.394a8.749,8.749,0,0,1-6.226-3.2q-2.14-2.733-2.14-8.309L96.9,749.3a1.169,1.169,0,0,1,.5-.955,2.518,2.518,0,0,1,1.547-.388h.636a2.718,2.718,0,0,1,1.613.412,1.2,1.2,0,0,1,.569.981Z" transform="translate(33.789 -740.935)" fill="#fff"/>
    </g>
    <g id="그룹_1016" data-name="그룹 1016" transform="translate(-150.246 787.022)">
      <g id="그룹_1015" data-name="그룹 1015" transform="translate(0)">
        <path id="패스_277" data-name="패스 277" d="M-131.325,840.98a.618.618,0,0,1,.321.084.848.848,0,0,1,.241.219,2.076,2.076,0,0,1,.186.3c.056.112.109.224.164.336.1.225.212.5.343.815s.267.656.41,1.01.286.722.433,1.1.282.739.41,1.1.244.685.35.988.187.563.246.781a.291.291,0,0,1-.089.349,1.746,1.746,0,0,1-.393.2c-.254.1-.439,0-.551-.281-.187-.434-.383-.947-.584-1.539q-.395.023-.759.034c-.243.008-.482.011-.72.012s-.473,0-.713-.005-.493-.013-.763-.028c-.106.314-.2.6-.3.854s-.186.5-.275.741c-.053.143-.12.224-.2.243a.684.684,0,0,1-.338-.039,2.723,2.723,0,0,1-.405-.191.266.266,0,0,1-.11-.326c.037-.149.107-.376.212-.68s.229-.648.37-1.033.295-.788.46-1.208.324-.822.477-1.208.291-.731.415-1.034.219-.53.286-.679a4.081,4.081,0,0,1,.36-.652A.59.59,0,0,1-131.325,840.98Zm0,1.439q-.135.315-.292.73t-.325.876q-.169.461-.332.927c-.108.311-.21.605-.308.882.45.016.873.022,1.27.022s.82-.012,1.269-.034q-.134-.393-.3-.848t-.338-.916q-.169-.46-.338-.887C-131.133,842.887-131.235,842.636-131.324,842.419Z" transform="translate(134.436 -840.878)" fill="#fff"/>
        <path id="패스_278" data-name="패스 278" d="M-119.27,844.523q.516,0,.517.281v.18c.316-.052.622-.1.922-.14s.663-.085,1.09-.13a1.892,1.892,0,0,1,.573.017,1,1,0,0,1,.455.212,1.126,1.126,0,0,1,.315.461,2.607,2.607,0,0,1,.152.747,14.293,14.293,0,0,1,.022,1.611,16.542,16.542,0,0,1-.156,1.68,1.811,1.811,0,0,1-.055.27.381.381,0,0,1-.112.179.474.474,0,0,1-.214.1,1.238,1.238,0,0,1-.36.005c-.232-.015-.372-.052-.421-.112a.339.339,0,0,1-.061-.248c.044-.6.092-1.2.139-1.809a12.781,12.781,0,0,0,.015-1.82.846.846,0,0,0-.191-.59.836.836,0,0,0-.641-.095l-.781.107c-.242.033-.473.069-.69.106v4.124c0,.194-.18.292-.539.292h-.159c-.335,0-.5-.086-.5-.259l0-4.91c0-.172.177-.258.527-.259Z" transform="translate(127.157 -842.659)" fill="#fff"/>
        <path id="패스_279" data-name="패스 279" d="M-104.216,851.628q-.518,0-.518-.28v-2.068c-.157.03-.309.057-.461.08l-.46.067c-.156.023-.326.044-.505.062l-.584.062a1.943,1.943,0,0,1-.573-.016,1.015,1.015,0,0,1-.456-.213,1.109,1.109,0,0,1-.314-.461,2.553,2.553,0,0,1-.151-.747,12.981,12.981,0,0,1-.024-1.528q.034-.73.157-1.6a2.109,2.109,0,0,1,.055-.264.366.366,0,0,1,.113-.185.446.446,0,0,1,.213-.1,1.222,1.222,0,0,1,.359-.006q.35.022.423.112a.347.347,0,0,1,.062.247q-.067.9-.14,1.725a11.355,11.355,0,0,0-.015,1.736.842.842,0,0,0,.191.589.834.834,0,0,0,.641.1c.277-.03.535-.064.775-.1s.472-.075.7-.112v-3.955q0-.292.539-.292h.157c.338,0,.505.086.505.259l0,6.628q0,.258-.529.258Z" transform="translate(121.286 -842.612)" fill="#fff"/>
        <path id="패스_280" data-name="패스 280" d="M-92.642,844a.774.774,0,0,1,.4.112.249.249,0,0,1,.118.192.292.292,0,0,1-.147.252.552.552,0,0,1-.37.073c-.389-.021-.753-.039-1.091-.05s-.666-.016-.989-.016c-.014.247-.028.492-.044.736s-.026.477-.033.7-.014.435-.016.629,0,.364,0,.506a.949.949,0,0,0,.192.6.781.781,0,0,0,.686.168,3.456,3.456,0,0,0,.393-.056.511.511,0,0,0,.258-.135.608.608,0,0,0,.146-.3,2.252,2.252,0,0,0,.033-.545.26.26,0,0,1,.158-.247,1.37,1.37,0,0,1,.45-.113,1.074,1.074,0,0,1,.415.028.228.228,0,0,1,.179.185,1.808,1.808,0,0,1-.032.848,1.161,1.161,0,0,1-.36.533,1.656,1.656,0,0,1-.606.3,4.908,4.908,0,0,1-.776.146,6.028,6.028,0,0,1-.892.062,1.79,1.79,0,0,1-.721-.146,1.107,1.107,0,0,1-.494-.45,1.88,1.88,0,0,1-.219-.848q-.024-.415-.013-1.124t.068-1.46c-.09,0-.179,0-.264.006s-.175.01-.265.017a.362.362,0,0,1-.291-.091.309.309,0,0,1-.1-.225.259.259,0,0,1,.117-.2.676.676,0,0,1,.343-.113c.1-.007.186-.01.264-.01s.16,0,.241-.012c.037-.374.072-.713.107-1.017a5.431,5.431,0,0,1,.117-.713.957.957,0,0,1,.27-.5.589.589,0,0,1,.539-.141.389.389,0,0,1,.332.252,1.029,1.029,0,0,1,.029.5c-.031.194-.06.427-.09.7s-.057.562-.079.876q.451,0,.91.022T-92.642,844Z" transform="translate(115.551 -841.176)" fill="#fff"/>
        <path id="패스_281" data-name="패스 281" d="M-84.053,841.052c.345,0,.517.094.517.28V843.4c.315-.052.62-.1.922-.141s.661-.085,1.088-.13a1.92,1.92,0,0,1,.573.017,1.01,1.01,0,0,1,.455.213,1.115,1.115,0,0,1,.315.461,2.6,2.6,0,0,1,.152.747q.046.8.017,1.528a15.85,15.85,0,0,1-.15,1.6,2,2,0,0,1-.056.27.372.372,0,0,1-.113.18.478.478,0,0,1-.213.1,1.252,1.252,0,0,1-.36.005c-.233-.014-.372-.052-.421-.112a.337.337,0,0,1-.062-.248c.044-.6.091-1.173.139-1.724a11.228,11.228,0,0,0,.015-1.736.845.845,0,0,0-.189-.59.836.836,0,0,0-.642-.1l-.78.107c-.243.034-.473.07-.691.107V847.9c0,.195-.178.292-.539.292h-.157q-.505,0-.505-.259l0-6.628c0-.172.177-.258.53-.258Z" transform="translate(109.454 -840.914)" fill="#fff"/>
        <path id="패스_282" data-name="패스 282" d="M-72.314,841.538a.777.777,0,0,1,.2-.539.641.641,0,0,1,.495-.225.626.626,0,0,1,.482.225.774.774,0,0,1,.2.539.775.775,0,0,1-.2.545.638.638,0,0,1-.483.219.646.646,0,0,1-.495-.219A.775.775,0,0,1-72.314,841.538Zm.788,1.573c.344,0,.517.094.517.281l0,4.438c0,.195-.181.292-.539.292H-71.7c-.336,0-.505-.086-.505-.259V843.37c0-.173.175-.259.527-.259Z" transform="translate(103.209 -840.775)" fill="#fff"/>
        <path id="패스_283" data-name="패스 283" d="M-65.619,844.5c.346,0,.517.094.517.281v.179q.472-.079.922-.141t1.089-.13a1.947,1.947,0,0,1,.574.017,1,1,0,0,1,.454.213,1.108,1.108,0,0,1,.316.461,2.582,2.582,0,0,1,.153.747,14.3,14.3,0,0,1,.023,1.612c-.022.535-.075,1.095-.156,1.679a2.017,2.017,0,0,1-.057.27.368.368,0,0,1-.112.18.465.465,0,0,1-.214.1,1.225,1.225,0,0,1-.36.006c-.232-.014-.371-.052-.421-.112a.344.344,0,0,1-.061-.248c.044-.6.092-1.2.139-1.808a12.859,12.859,0,0,0,.016-1.821.853.853,0,0,0-.191-.589.831.831,0,0,0-.641-.095l-.78.106c-.244.034-.473.07-.692.108l0,4.123c0,.195-.179.292-.539.292H-65.8c-.337,0-.506-.086-.506-.259l0-4.909c0-.172.178-.259.53-.259Z" transform="translate(100.188 -842.647)" fill="#fff"/>
        <path id="패스_284" data-name="패스 284" d="M-50.036,849a3.168,3.168,0,0,1-.169,1,2.278,2.278,0,0,1-.442.77,2.12,2.12,0,0,1-.679.506,2.14,2.14,0,0,1-.865.2,4.238,4.238,0,0,1-.6-.022,4.36,4.36,0,0,1-.652-.124.761.761,0,0,1-.375-.184.272.272,0,0,1-.074-.3.186.186,0,0,1,.191-.129,1.29,1.29,0,0,1,.293.051,2.918,2.918,0,0,0,.46.073c.15.012.289.02.417.028a1.523,1.523,0,0,0,.756-.118.917.917,0,0,0,.41-.4,1.688,1.688,0,0,0,.169-.63q.033-.371.032-.82a2.3,2.3,0,0,1-.69.4,1.75,1.75,0,0,1-.636.107,3.069,3.069,0,0,1-.921-.152,1.619,1.619,0,0,1-.7-.46,2.188,2.188,0,0,1-.444-.854,4.708,4.708,0,0,1-.158-1.32,2.782,2.782,0,0,1,.505-1.843,2.046,2.046,0,0,1,1.628-.585,2.009,2.009,0,0,1,.708.162,2.02,2.02,0,0,1,.776.578,2.363,2.363,0,0,1,.032-.444.642.642,0,0,1,.1-.253.282.282,0,0,1,.162-.113.994.994,0,0,1,.219-.022.564.564,0,0,1,.444.152.865.865,0,0,1,.118.477c.006.112.011.247.011.4v.584c0,.263,0,.543,0,.844s-.008.6-.011.893-.006.577-.01.843S-50.036,848.8-50.036,849Zm-2.148-4.2a1.416,1.416,0,0,0-.572.085.91.91,0,0,0-.415.325,1.671,1.671,0,0,0-.258.613,4.184,4.184,0,0,0-.09.944,4.638,4.638,0,0,0,.09,1.01,1.617,1.617,0,0,0,.26.618.9.9,0,0,0,.4.315,1.394,1.394,0,0,0,.512.09.74.74,0,0,0,.505-.152,1.164,1.164,0,0,0,.325-.433,2.349,2.349,0,0,0,.18-.623,4.6,4.6,0,0,0,.057-.736,7.841,7.841,0,0,0-.04-.8,2.507,2.507,0,0,0-.146-.651,1.059,1.059,0,0,0-.3-.438A.755.755,0,0,0-52.184,844.8Z" transform="translate(94.36 -842.45)" fill="#fff"/>
        <path id="패스_285" data-name="패스 285" d="M-33.318,845.246c-.217.016-.419.028-.6.039s-.354.021-.512.029-.308.013-.454.016-.294.006-.444.006c.036.45.083.878.136,1.286s.1.74.134.994a1.035,1.035,0,0,1-.028.5.386.386,0,0,1-.33.253.589.589,0,0,1-.539-.14.954.954,0,0,1-.27-.5,3.819,3.819,0,0,1-.092-.411q-.045-.252-.085-.572t-.079-.692q-.039-.371-.073-.752c-.082-.007-.166-.013-.247-.017s-.177-.009-.281-.016a.671.671,0,0,1-.343-.113.254.254,0,0,1-.118-.2.306.306,0,0,1,.1-.225.356.356,0,0,1,.29-.09l.539.033c-.036-.427-.062-.827-.074-1.2s-.009-.674.006-.9a1.89,1.89,0,0,1,.218-.848,1.1,1.1,0,0,1,.495-.45,1.792,1.792,0,0,1,.72-.146,5.94,5.94,0,0,1,.892.062,6.41,6.41,0,0,1,.776.151,1.588,1.588,0,0,1,.606.3,1.144,1.144,0,0,1,.36.534,1.824,1.824,0,0,1,.034.848.233.233,0,0,1-.181.186,1.075,1.075,0,0,1-.414.028,1.392,1.392,0,0,1-.45-.112.261.261,0,0,1-.157-.247,2.248,2.248,0,0,0-.034-.545.6.6,0,0,0-.146-.3.512.512,0,0,0-.259-.136,3.716,3.716,0,0,0-.395-.056.776.776,0,0,0-.683.169.939.939,0,0,0-.191.6,7.284,7.284,0,0,0,.012.9q.033.556.089,1.185c.322,0,.651-.008.983-.023s.7-.034,1.085-.056a.563.563,0,0,1,.371.073.291.291,0,0,1,.146.253.244.244,0,0,1-.118.191A.77.77,0,0,1-33.318,845.246Z" transform="translate(85.73 -840.953)" fill="#fff"/>
        <path id="패스_286" data-name="패스 286" d="M-23.089,844.344a2.664,2.664,0,0,1,1.074.213,2.518,2.518,0,0,1,.837.584,2.585,2.585,0,0,1,.539.882,3.1,3.1,0,0,1,.193,1.106,3.351,3.351,0,0,1-.186,1.13,2.731,2.731,0,0,1-.522.9,2.329,2.329,0,0,1-.82.6,2.609,2.609,0,0,1-1.067.214,2.752,2.752,0,0,1-1.085-.207,2.407,2.407,0,0,1-.836-.584,2.536,2.536,0,0,1-.534-.893,3.332,3.332,0,0,1-.185-1.134,3.242,3.242,0,0,1,.185-1.118,2.637,2.637,0,0,1,.527-.888,2.432,2.432,0,0,1,.82-.591A2.58,2.58,0,0,1-23.089,844.344Zm.013,5.021a1.211,1.211,0,0,0,1.052-.567,3.02,3.02,0,0,0,.387-1.691,3.407,3.407,0,0,0-.1-.877,2.275,2.275,0,0,0-.284-.679,1.345,1.345,0,0,0-.456-.444,1.153,1.153,0,0,0-.6-.157,1.185,1.185,0,0,0-1.032.567,2.87,2.87,0,0,0-.382,1.612,3.026,3.026,0,0,0,.383,1.629A1.17,1.17,0,0,0-23.076,849.365Z" transform="translate(79.768 -842.569)" fill="#fff"/>
        <path id="패스_287" data-name="패스 287" d="M-12.034,844.476c.345,0,.516.094.516.28v.091q.33-.046.681-.091l.814-.1a1.633,1.633,0,0,1,.573.034,1.146,1.146,0,0,1,.478.247,1.223,1.223,0,0,1,.327.478,1.974,1.974,0,0,1,.117.725v.292a.5.5,0,0,1-.13.4,1,1,0,0,1-.556.1q-.36,0-.432-.2a1.448,1.448,0,0,1-.074-.5V846c0-.307-.076-.5-.224-.59a1.042,1.042,0,0,0-.63-.084q-.505.067-.944.135v4.247c0,.2-.179.292-.539.292h-.156c-.338,0-.507-.085-.507-.259l0-5.01c0-.173.177-.258.529-.258Z" transform="translate(73.252 -842.635)" fill="#fff"/>
        <path id="패스_288" data-name="패스 288" d="M5.257,843.346a5.728,5.728,0,0,0,.051.832,1.524,1.524,0,0,0,.185.578.841.841,0,0,0,.364.343,1.313,1.313,0,0,0,.58.112,1.466,1.466,0,0,0,.7-.141.959.959,0,0,0,.393-.388,1.544,1.544,0,0,0,.168-.589c.023-.228.033-.478.033-.747v-2.157q0-.36.674-.36h.169c.441,0,.663.123.663.37v2.248a5.921,5.921,0,0,1-.072.971,1.907,1.907,0,0,1-.287.753,1.571,1.571,0,0,1-.606.522,3.129,3.129,0,0,1-1.044.281v1.91c0,.261-.229.393-.686.393H6.381q-.652,0-.651-.371v-1.921a2.227,2.227,0,0,1-1.484-.735,2.79,2.79,0,0,1-.493-1.8v-2.259q0-.359.673-.36h.168c.441,0,.664.124.664.37Z" transform="translate(64.973 -840.802)" fill="#fff"/>
        <path id="패스_289" data-name="패스 289" d="M19.006,844.213a2.732,2.732,0,0,1,1.109.218,2.506,2.506,0,0,1,.853.606,2.725,2.725,0,0,1,.546.909,3.234,3.234,0,0,1,.19,1.118,3.431,3.431,0,0,1-.185,1.135,2.723,2.723,0,0,1-.528.916,2.445,2.445,0,0,1-.835.613,2.637,2.637,0,0,1-1.1.225,2.711,2.711,0,0,1-1.11-.219,2.563,2.563,0,0,1-.851-.6,2.631,2.631,0,0,1-.544-.9,3.455,3.455,0,0,1,0-2.27,2.75,2.75,0,0,1,.539-.91,2.527,2.527,0,0,1,1.92-.837Zm.014,5.01a.959.959,0,0,0,.865-.573,3.39,3.39,0,0,0,.315-1.607,3.686,3.686,0,0,0-.084-.8,2.259,2.259,0,0,0-.239-.63,1.2,1.2,0,0,0-.37-.41.865.865,0,0,0-.488-.146.958.958,0,0,0-.853.529,2.907,2.907,0,0,0-.315,1.483,4.273,4.273,0,0,0,.081.86,2.469,2.469,0,0,0,.229.685,1.333,1.333,0,0,0,.372.45A.793.793,0,0,0,19.02,849.224Z" transform="translate(58.636 -842.503)" fill="#fff"/>
        <path id="패스_290" data-name="패스 290" d="M33.083,844.433c.45,0,.674.128.674.382l0,4.752c0,.263-.232.393-.7.393h-.146q-.662,0-.662-.359v-.057c-.262.039-.529.076-.8.113s-.566.075-.887.113a1.892,1.892,0,0,1-.636-.016,1.177,1.177,0,0,1-.5-.242,1.214,1.214,0,0,1-.35-.489,2.325,2.325,0,0,1-.152-.78,14.458,14.458,0,0,1-.023-1.636A12.707,12.707,0,0,1,29.062,845a2.719,2.719,0,0,1,.073-.3.444.444,0,0,1,.129-.208.524.524,0,0,1,.259-.106,1.909,1.909,0,0,1,.449-.005,1.424,1.424,0,0,1,.445.089.416.416,0,0,1,.206.169.455.455,0,0,1,.052.242c0,.093-.013.2-.028.309-.022.208-.043.455-.062.735s-.037.568-.054.86-.03.577-.034.854,0,.521.016.73a.789.789,0,0,0,.124.471c.067.068.207.086.415.056.226-.022.435-.047.63-.073s.386-.058.572-.1v-3.932c0-.24.227-.36.685-.36Z" transform="translate(52.334 -842.581)" fill="#fff"/>
        <path id="패스_291" data-name="패스 291" d="M42.108,849.978q-.675,0-.675-.382l0-4.864q0-.393.7-.393h.146c.428,0,.647.112.664.337.172-.023.352-.045.539-.068s.389-.049.608-.078a1.857,1.857,0,0,1,.633.016,1.166,1.166,0,0,1,.507.241,1.211,1.211,0,0,1,.348.489,2.325,2.325,0,0,1,.152.78l0,.258a.565.565,0,0,1-.164.478,1.3,1.3,0,0,1-.678.118.986.986,0,0,1-.371-.056.45.45,0,0,1-.207-.164.542.542,0,0,1-.092-.253,2.585,2.585,0,0,1-.017-.314v-.191a.66.66,0,0,0-.151-.472.6.6,0,0,0-.445-.057l-.343.046-.32.045,0,4.123q0,.36-.686.36Z" transform="translate(46.031 -842.566)" fill="#fff"/>
        <path id="패스_292" data-name="패스 292" d="M63.111,843a1.76,1.76,0,0,1-.185.877,1.708,1.708,0,0,1-.646.6,1.98,1.98,0,0,1,.943.674,1.737,1.737,0,0,1,.3,1.033,1.846,1.846,0,0,1-.275,1.051,1.968,1.968,0,0,1-.712.646,3.139,3.139,0,0,1-.983.326,6.685,6.685,0,0,1-1.1.09H59.079a2.939,2.939,0,0,1-.482-.034.755.755,0,0,1-.331-.128.579.579,0,0,1-.192-.264,1.375,1.375,0,0,1-.062-.45l0-5.572a.839.839,0,0,1,.1-.444.583.583,0,0,1,.27-.236,1.222,1.222,0,0,1,.394-.091c.148-.011.309-.016.482-.016h.808a4.11,4.11,0,0,1,2.315.51A1.649,1.649,0,0,1,63.111,843Zm-3.582,4.361h1a3.405,3.405,0,0,0,.746-.069,1.252,1.252,0,0,0,.478-.2.764.764,0,0,0,.26-.338,1.359,1.359,0,0,0,.079-.483,1.952,1.952,0,0,0-.074-.534,1.113,1.113,0,0,0-.248-.444,1.267,1.267,0,0,0-.465-.309,2.033,2.033,0,0,0-.742-.117H60.3a.551.551,0,0,1-.376-.107.345.345,0,0,1-.117-.264.514.514,0,0,1,.089-.3c.061-.086.2-.129.417-.129H60.6a1.036,1.036,0,0,0,.343-.056.733.733,0,0,0,.291-.191,1.029,1.029,0,0,0,.209-.348,1.64,1.64,0,0,0,.077-.54,1.17,1.17,0,0,0-.057-.37.711.711,0,0,0-.2-.3.977.977,0,0,0-.382-.213,2.23,2.23,0,0,0-.612-.09l-.741-.01Z" transform="translate(37.698 -840.916)" fill="#fff"/>
        <path id="패스_293" data-name="패스 293" d="M75.406,846.364q0,.82-.01,1.573c-.008.5-.023.924-.044,1.27a.887.887,0,0,1-.164.539.764.764,0,0,1-.567.158,1.054,1.054,0,0,1-.506-.1c-.12-.068-.177-.214-.169-.438a1.193,1.193,0,0,1-.556.321,2.68,2.68,0,0,1-1.657-.078,1.936,1.936,0,0,1-.663-.45,1.7,1.7,0,0,1-.377-.618,2.1,2.1,0,0,1-.118-.691,1.885,1.885,0,0,1,.633-1.545,2.6,2.6,0,0,1,1.7-.523,2.08,2.08,0,0,1,.589.078,1.193,1.193,0,0,1,.466.259v-.455a.669.669,0,0,0-.089-.354.6.6,0,0,0-.31-.231,1.894,1.894,0,0,0-.646-.084q-.157,0-.359.017a2.93,2.93,0,0,0-.44.074.987.987,0,0,1-.443.028.306.306,0,0,1-.231-.241.433.433,0,0,1,.084-.394.79.79,0,0,1,.49-.247,4.964,4.964,0,0,1,1.223-.112,2.326,2.326,0,0,1,1.573.583A2.181,2.181,0,0,1,75.406,846.364Zm-2.3,2.618a.707.707,0,0,0,.567-.314,1.64,1.64,0,0,0,.24-.989,1.346,1.346,0,0,0-.191-.8.715.715,0,0,0-.618-.258,1,1,0,0,0-.726.27,1.142,1.142,0,0,0-.275.843,1.591,1.591,0,0,0,.232.91A.861.861,0,0,0,73.105,848.982Z" transform="translate(31.38 -842.454)" fill="#fff"/>
        <path id="패스_294" data-name="패스 294" d="M83.58,841c.42,0,.628.12.628.359l-.044,2.09a1.19,1.19,0,0,1,.485-.276,2.36,2.36,0,0,1,.6-.1,3.256,3.256,0,0,1,.96.111,1.676,1.676,0,0,1,.738.428,2.039,2.039,0,0,1,.471.792,3.655,3.655,0,0,1,.169,1.2,4.609,4.609,0,0,1-.117,1.09,2.208,2.208,0,0,1-.376.826,1.686,1.686,0,0,1-.662.529,2.359,2.359,0,0,1-.988.185,2.471,2.471,0,0,1-.668-.095,1.189,1.189,0,0,1-.557-.32c.008.224-.048.371-.168.438a1.043,1.043,0,0,1-.506.1.85.85,0,0,1-.567-.135.783.783,0,0,1-.164-.517c-.007-.112-.013-.311-.017-.6s-.007-.618-.011-1-.008-.8-.012-1.241-.007-.885-.007-1.319v-1.225c0-.382,0-.708.011-.978,0-.231.213-.348.641-.348Zm1.507,6.437a1.241,1.241,0,0,0,.455-.073.612.612,0,0,0,.3-.269,1.478,1.478,0,0,0,.169-.556,6.878,6.878,0,0,0,.05-.933,3.075,3.075,0,0,0-.2-1.292.689.689,0,0,0-.668-.393.926.926,0,0,0-.445.1.728.728,0,0,0-.3.326,1.925,1.925,0,0,0-.161.579,6.137,6.137,0,0,0-.05.871,2.532,2.532,0,0,0,.236,1.242A.7.7,0,0,0,85.087,847.436Z" transform="translate(25.25 -840.888)" fill="#fff"/>
        <path id="패스_295" data-name="패스 295" d="M98.235,844.314q.673,0,.673.382l0,6.471c0,.262-.232.394-.7.394h-.146c-.441,0-.662-.119-.662-.359v-1.943l-.8.113c-.27.038-.567.075-.887.112a1.852,1.852,0,0,1-.635-.016,1.2,1.2,0,0,1-.507-.241,1.234,1.234,0,0,1-.348-.489,2.344,2.344,0,0,1-.153-.781,14.1,14.1,0,0,1-.023-1.551,12.708,12.708,0,0,1,.157-1.528c.022-.113.047-.212.072-.3a.44.44,0,0,1,.13-.208.515.515,0,0,1,.258-.107,1.877,1.877,0,0,1,.449-.005,1.41,1.41,0,0,1,.445.089.417.417,0,0,1,.208.169.452.452,0,0,1,.051.241c0,.094-.014.2-.03.31-.02.209-.042.445-.06.707s-.036.529-.056.8-.03.536-.033.8,0,.5.017.708a.8.8,0,0,0,.124.472c.068.067.206.087.415.056q.338-.034.631-.073t.571-.095l0-3.764c0-.24.23-.36.686-.36Z" transform="translate(19.583 -842.521)" fill="#fff"/>
      </g>
    </g>
  </g>
</svg>
