<svg xmlns="http://www.w3.org/2000/svg" width="26.716" height="26.712" viewBox="0 0 26.716 26.712">
  <g id="그룹_1661" data-name="그룹 1661" transform="translate(-2417.588 1644.189)">
    <path id="패스_674" data-name="패스 674" d="M2638.11-1312.3a1.116,1.116,0,0,0,1.116,1.116h11.156a1.116,1.116,0,0,0,1.116-1.116,1.115,1.115,0,0,0-1.116-1.115h-11.156A1.115,1.115,0,0,0,2638.11-1312.3Z" transform="translate(-213.831 -320.739)" fill="#fff"/>
    <path id="패스_675" data-name="패스 675" d="M2638.11-1165.264a1.116,1.116,0,0,0,1.116,1.116h11.156a1.116,1.116,0,0,0,1.116-1.116,1.115,1.115,0,0,0-1.116-1.115h-11.156A1.115,1.115,0,0,0,2638.11-1165.264Z" transform="translate(-213.831 -463.312)" fill="#fff"/>
    <path id="패스_676" data-name="패스 676" d="M2430.948-1644.189a13.3,13.3,0,0,1,9.444,3.911l.053.064a13.311,13.311,0,0,1,3.859,9.381,13.293,13.293,0,0,1-.656,4.139,13.541,13.541,0,0,1-1.712,3.449v4.741a1.028,1.028,0,0,1-1.028,1.027h-9.96a13.289,13.289,0,0,1-9.441-3.913h-.005a13.327,13.327,0,0,1-3.913-9.443,13.328,13.328,0,0,1,3.918-9.445h-.005a13.3,13.3,0,0,1,9.447-3.911Zm7.923,5.43h0a11.172,11.172,0,0,0-7.923-3.281,11.179,11.179,0,0,0-7.927,3.281l0-.005,0,.005a11.189,11.189,0,0,0-3.275,7.926,11.186,11.186,0,0,0,3.281,7.925l0,.005a11.208,11.208,0,0,0,7.93,3.282h8.857v-4.005h0a1.022,1.022,0,0,1,.194-.6,11.074,11.074,0,0,0,1.605-3.128,11.215,11.215,0,0,0,.549-3.476,11.156,11.156,0,0,0-3.237-7.877l-.049-.049Z" transform="translate(0 0)" fill="#fff"/>
  </g>
</svg>
