<svg xmlns="http://www.w3.org/2000/svg" width="130" height="130" viewBox="0 0 130 130">
  <path id="패스_710" data-name="패스 710" d="M6931.623-4692.993l-15.432-15.432a24.378,24.378,0,0,0-1.809-32.447,24.736,24.736,0,0,0-2.847-2.443v-10.348c.015-.165.024-.332.024-.5a5.417,5.417,0,0,0-5.42-5.417h-10.852v-15.99c0-.087,0-.174,0-.261a37.91,37.91,0,0,0-37.908-37.911,37.91,37.91,0,0,0-37.909,37.911v16.251h-10.844a5.419,5.419,0,0,0-5.418,5.419c0,.007,0,.014,0,.021v64.952c0,.007,0,.016,0,.022a5.417,5.417,0,0,0,2.836,4.765,5.4,5.4,0,0,0,2.586.655l.012,0,.075,0h97.3l.091,0h.011l.012,0a5.421,5.421,0,0,0,5.42-5.42c0-.169-.009-.335-.024-.5v-8.1l12.413,12.415c.007.007.01.016.013.018a5.42,5.42,0,0,0,7.666,0A5.418,5.418,0,0,0,6931.623-4692.993Zm-30.923-17.579a13.532,13.532,0,0,1-13.127-3.49,13.542,13.542,0,0,1,0-19.15,13.532,13.532,0,0,1,13.127-3.49,13.478,13.478,0,0,1,6.022,3.49,13.543,13.543,0,0,1,0,19.15A13.469,13.469,0,0,1,6900.7-4710.572Zm-20.787-30.3a24.376,24.376,0,0,0,0,34.47,24.335,24.335,0,0,0,20.787,6.879v4.942h-86.653v-54.166H6900.7v1A24.338,24.338,0,0,0,6879.913-4740.873Zm-49.619-34.959a27.087,27.087,0,0,1,27.086-27.088,27.087,27.087,0,0,1,27.086,27.088v16.251h-54.172Z" transform="translate(-6803.211 4813.743)" fill="#bcbcbc"/>
</svg>
