<svg xmlns="http://www.w3.org/2000/svg" width="130" height="130" viewBox="0 0 130 130">
  <g id="그룹_1679" data-name="그룹 1679" transform="translate(-3997.188 4813.734)">
    <path id="패스_713" data-name="패스 713" d="M4571.364-4278.183l-12.639,20.558-8.658-14.01a3.082,3.082,0,0,0-4.24-1.011,3.082,3.082,0,0,0-1.011,4.24l.007.009,11.269,18.235a.117.117,0,0,0,.005.011,3.076,3.076,0,0,0,2.585,1.467h.1a3.077,3.077,0,0,0,2.585-1.467.124.124,0,0,1,.006-.011l15.236-24.782.008-.01a3.082,3.082,0,0,0-1.011-4.24A3.082,3.082,0,0,0,4571.364-4278.183Z" transform="translate(-465.816 -455.001)" fill="#bcbcbc"/>
    <path id="패스_714" data-name="패스 714" d="M4105.531-4752.3v-1.85h0a5.417,5.417,0,0,0-3.651-5.12,5.426,5.426,0,0,0-1.767-.3H4089.26v-15.991c0-.087,0-.174,0-.261a37.91,37.91,0,0,0-37.908-37.912,37.909,37.909,0,0,0-37.907,37.912v16.251h-10.844a5.418,5.418,0,0,0-5.418,5.419c0,.007,0,.013,0,.022v64.953c0,.007,0,.016,0,.023a5.417,5.417,0,0,0,2.837,4.765,5.393,5.393,0,0,0,2.585.655l.012,0,.074,0h97.326l.077,0,.013,0a5.421,5.421,0,0,0,5.236-4.023c0-.015.008-.029.013-.043.013-.051.024-.1.036-.156.009-.036.018-.07.025-.106s.015-.088.023-.132.018-.09.023-.135.011-.079.016-.119.014-.1.019-.153.007-.081.01-.122.01-.1.011-.152c0-.093.007-.186.007-.278v-1.852a32.515,32.515,0,0,0,21.657-30.648A32.518,32.518,0,0,0,4105.531-4752.3Zm-28.819,57.731h-68.688v-54.168h68.692a32.475,32.475,0,0,0-14.529,27.085A32.477,32.477,0,0,0,4076.712-4694.57Zm-52.442-81.251a27.088,27.088,0,0,1,27.085-27.089,27.088,27.088,0,0,1,27.085,27.089v16.251H4024.27Zm81.262,72.93a21.569,21.569,0,0,1-10.833,2.906h-.01a21.667,21.667,0,0,1-21.666-21.668,21.667,21.667,0,0,1,21.666-21.667h.01a21.56,21.56,0,0,1,10.833,2.907,21.657,21.657,0,0,1,10.821,18.761A21.658,21.658,0,0,1,4105.531-4702.892Z" fill="#bcbcbc"/>
  </g>
</svg>
