<?xml version="1.0" encoding="utf-8"?>
<!-- Generator: Adobe Illustrator 22.0.1, SVG Export Plug-In . SVG Version: 6.00 Build 0)  -->
<svg version="1.1" id="Layer_1" xmlns="http://www.w3.org/2000/svg" xmlns:xlink="http://www.w3.org/1999/xlink" x="0px" y="0px"
	 viewBox="0 0 259 259" style="enable-background:new 0 0 259 259;" xml:space="preserve">
<style type="text/css">
	.st0{fill:#B9D1CE;}
</style>
<g>
	<path class="st0" d="M129.5,163.4L129.5,163.4L129.5,163.4L129.5,163.4c32.8,0,59.3-26.5,59.3-59.3c0,0,0,0,0,0
		c0-32.7-26.5-59.3-59.3-59.3h0c-32.7,0-59.3,26.5-59.3,59.3S96.7,163.4,129.5,163.4z"/>
	<path class="st0" d="M81.8,163.6c-18.1-14.5-28.6-36.4-28.6-59.5c0,0,0,0,0,0c0-42.1,34.1-76.2,76.2-76.2h0c0,0,0,0,0,0
		c42.1,0,76.2,34.1,76.2,76.2c0,23.1-10.5,45-28.6,59.5c25.5,2.3,46.1,20.6,52.1,44.4c17-21.6,27.2-48.9,27.2-78.5
		c0-70.1-56.9-127-127-127s-127,56.9-127,127c0,29.6,10.2,56.9,27.2,78.5C35.7,184.2,56.3,165.9,81.8,163.6z"/>
	<path class="st0" d="M212.4,222.1c-2-18.3-5.7-24.5-10.8-29.5c-7.2-7.2-16.8-11.5-27-12.2l-0.4,0l-0.5,0c-0.2,0-0.5,0-0.7,0l-0.3,0
		c-0.3,0-0.7,0-1,0H87.1c-0.3,0-0.7,0-1,0l-0.3,0c-0.2,0-0.5,0-0.7,0l-0.5,0l-0.4,0c-10.2,0.6-19.8,5-27,12.2
		c-5.1,5.1-8.8,11.2-10.8,29.5c0,1-0.3,2.1-0.6,3c22.3,19.5,51.5,31.3,83.5,31.3c32,0,61.2-11.8,83.5-31.3
		C212.7,224.2,212.4,223.2,212.4,222.1z"/>
</g>
</svg>
