<svg xmlns="http://www.w3.org/2000/svg" width="35.285" height="26.658" viewBox="0 0 35.285 26.658">
  <path id="패스_688" data-name="패스 688" d="M-3740.948-3759.173a2.331,2.331,0,0,0-.829-1.592,2.35,2.35,0,0,0-1.506-.549,2.342,2.342,0,0,0-1.8.838l-16.639,19.831-10.332-12.348-.017-.027-.03-.029a2.338,2.338,0,0,0-1.78-.817,2.353,2.353,0,0,0-1.507.548,2.328,2.328,0,0,0-.829,1.592,2.328,2.328,0,0,0,.539,1.712l12.149,14.521a2.34,2.34,0,0,0,1.7.834h.056a.416.416,0,0,0,.043,0h.109a2.339,2.339,0,0,0,1.7-.835l.021-.027,18.379-21.9.024-.021.023-.035A2.328,2.328,0,0,0-3740.948-3759.173Z" transform="translate(3776.223 3761.314)" fill="#68c0b5"/>
</svg>
