<svg xmlns="http://www.w3.org/2000/svg" xmlns:xlink="http://www.w3.org/1999/xlink" width="185" height="185" viewBox="0 0 185 185">
  <defs>
    <clipPath id="clip-path">
      <circle id="K-008" cx="92.5" cy="92.5" r="92.5" transform="translate(8411 2197)" fill="none" stroke="#a5a5a5" stroke-width="2"/>
    </clipPath>
    <clipPath id="clip-path-2">
      <circle id="타원_16" data-name="타원 16" cx="91.57" cy="91.57" r="91.57" transform="translate(0 129.5) rotate(-45)" fill="#96999c"/>
    </clipPath>
  </defs>
  <g id="마스크_그룹_1" data-name="마스크 그룹 1" transform="translate(-8411 -2197)" clip-path="url(#clip-path)">
    <circle id="타원_15" data-name="타원 15" cx="91.57" cy="91.57" r="91.57" transform="translate(8374 2289.5) rotate(-45)" fill="#b9d1ce"/>
    <g id="그룹_1687" data-name="그룹 1687" transform="translate(8374 2160)" clip-path="url(#clip-path-2)">
      <path id="패스_717" data-name="패스 717" d="M5898.677-3945.059a42.468,42.468,0,0,0-38.663-42.278,54.51,54.51,0,0,0,20.468-42.622,54.615,54.615,0,0,0-54.615-54.616h-.019a54.616,54.616,0,0,0-54.616,54.616,54.511,54.511,0,0,0,20.469,42.622,42.469,42.469,0,0,0-38.663,42.278c0,.006,0,.011,0,.017,0,.082,0,.164.007.245,0,.057,0,.113.009.169a.05.05,0,0,0,0,.009v.01q.01.142.027.282v0a6.04,6.04,0,0,0,1.306,3.1h0c.054.066.108.13.165.193.006.009.013.017.021.025.052.058.1.114.158.17l.037.039.155.152.051.048c.05.046.1.092.151.136l.063.054c.049.042.1.082.15.122.025.02.049.039.074.058.049.038.1.074.149.111.026.02.054.04.082.059l.148.1.092.058c.049.031.1.061.148.09l.1.058c.049.027.1.054.147.081.035.019.071.037.108.055s.1.049.147.072l.115.052c.048.022.1.043.146.063l.124.049.146.055.13.044.146.047.139.039.142.039.147.034.14.031.156.028c.046.008.09.017.137.023s.112.014.168.021l.129.016c.063.006.128.01.191.014l.11.008c.1,0,.2.007.3.007h.007a7.215,7.215,0,0,0,5.713-2.186,7,7,0,0,0,1.655-4.25c1.432-13.127,4.055-17.531,7.715-21.159a30.091,30.091,0,0,1,19.347-8.71l.253-.016.342-.018q.243-.011.485-.018l.183-.006c.238-.005.477-.009.715-.009H5856.2c.239,0,.477,0,.716.009l.182.006q.242.007.485.018l.341.018.254.016a30.088,30.088,0,0,1,19.347,8.71c3.66,3.628,6.284,8.032,7.716,21.159a7.008,7.008,0,0,0,1.654,4.25,7.218,7.218,0,0,0,5.713,2.186h.008q.149,0,.3-.007l.11-.008c.064,0,.128-.008.192-.014l.128-.016c.057-.007.112-.013.168-.021s.091-.015.137-.023.1-.018.156-.028l.141-.031.146-.034.143-.039.138-.039.145-.047.13-.044.146-.055.123-.049c.049-.02.1-.042.147-.063l.115-.052c.049-.023.1-.047.147-.072l.107-.055c.05-.026.1-.053.147-.081l.1-.058c.049-.029.1-.059.147-.09.032-.019.062-.039.092-.058l.148-.1.083-.059c.05-.037.1-.073.149-.111.024-.018.048-.038.073-.058.05-.04.1-.081.15-.122l.063-.054c.051-.045.1-.09.151-.136l.051-.048c.052-.05.1-.1.154-.152l.038-.039c.053-.056.106-.112.158-.17l.021-.025c.056-.063.111-.127.164-.193h0a6.037,6.037,0,0,0,1.306-3.1v0q.016-.14.026-.282v-.01s0-.006,0-.009c0-.056.007-.112.009-.169,0-.082.005-.163.005-.245Zm-72.81-42.45h-.019a42.466,42.466,0,0,1-42.465-42.466,42.466,42.466,0,0,1,42.465-42.466h.019a42.465,42.465,0,0,1,42.465,42.466A42.465,42.465,0,0,1,5825.867-3987.509Z" transform="translate(-5696.358 4141.275)" fill="#fff"/>
    </g>
  </g>
</svg>
