<svg xmlns="http://www.w3.org/2000/svg" width="130" height="130" viewBox="0 0 130 130">
  <path id="패스_700" data-name="패스 700" d="M5916.038-2581.04a37.914,37.914,0,0,0-34.512-37.748,48.672,48.672,0,0,0,18.271-38.055,48.757,48.757,0,0,0-48.75-48.764h-.016a48.757,48.757,0,0,0-48.751,48.764,48.674,48.674,0,0,0,18.271,38.055,37.913,37.913,0,0,0-34.511,37.748c0,.005,0,.011,0,.016,0,.073,0,.146.005.219,0,.05,0,.1.008.151,0,0,0,.005,0,.008v.009c.006.085.014.168.023.252v0a5.4,5.4,0,0,0,1.166,2.764h0c.048.059.1.116.146.173l.019.022c.045.052.093.1.141.152l.034.035c.044.046.091.091.137.135l.045.043c.044.041.09.082.136.121l.055.048c.044.037.09.074.135.11l.065.051c.043.034.088.066.133.1l.073.053.133.089.082.052.132.081.089.051.132.072.1.049c.044.022.087.043.132.064l.1.047.13.057.111.043.129.049.117.04c.043.014.086.029.129.041s.082.024.124.035.085.024.127.035l.131.03.125.028.14.025.121.021.151.019.116.014c.057.006.114.009.171.013l.1.007c.088,0,.177.007.267.007h.007a6.438,6.438,0,0,0,5.1-1.952,6.258,6.258,0,0,0,1.478-3.794c1.278-11.72,3.62-15.652,6.887-18.891a26.853,26.853,0,0,1,17.269-7.778l.227-.013.306-.016q.216-.01.433-.016l.163-.005q.319-.007.639-.008h54.167c.212,0,.426,0,.639.008l.163.005c.145,0,.289.009.433.016l.3.016.227.013a26.852,26.852,0,0,1,17.269,7.778c3.268,3.239,5.61,7.171,6.888,18.891a6.26,6.26,0,0,0,1.477,3.794,6.44,6.44,0,0,0,5.1,1.952h.007c.089,0,.178,0,.266-.007l.1-.007c.058,0,.115-.007.172-.013l.115-.014c.05-.006.1-.012.15-.019l.122-.021.139-.025.125-.028.131-.03c.043-.01.085-.023.127-.035l.124-.035c.043-.013.086-.028.129-.041l.117-.04.13-.049.109-.043c.044-.018.088-.037.131-.057l.1-.047c.044-.021.088-.042.132-.064l.1-.049c.045-.023.089-.048.132-.072l.089-.051c.045-.026.088-.053.132-.081l.082-.052.133-.089.074-.053c.044-.032.089-.065.133-.1l.065-.051c.045-.036.09-.072.134-.11l.055-.048c.046-.04.091-.08.136-.121l.045-.043c.046-.044.092-.089.138-.135l.034-.035c.047-.05.095-.1.141-.152l.019-.022c.049-.057.1-.114.146-.173h0a5.388,5.388,0,0,0,1.166-2.764v0c.009-.084.017-.167.023-.252v-.017c0-.05.006-.1.009-.151,0-.073.005-.146.005-.219C5916.039-2581.029,5916.038-2581.035,5916.038-2581.04Zm-64.992-37.9h-.016a37.91,37.91,0,0,1-37.906-37.916,37.91,37.91,0,0,1,37.906-37.916h.016a37.911,37.911,0,0,1,37.906,37.916A37.911,37.911,0,0,1,5851.046-2618.941Z" transform="translate(-5786.039 2705.606)" fill="#bcbcbc"/>
</svg>
