<svg xmlns="http://www.w3.org/2000/svg" width="130" height="130" viewBox="0 0 130 130">
  <path id="패스_716" data-name="패스 716" d="M5994.579-1420.669l-18.2-18.206a26.921,26.921,0,0,0,3.806-8.905,27.071,27.071,0,0,0-5.373-23.079,48.546,48.546,0,0,0,5.133-21.8,48.759,48.759,0,0,0-48.757-48.763h-.017a48.76,48.76,0,0,0-48.756,48.763,48.672,48.672,0,0,0,18.272,38.055,37.916,37.916,0,0,0-34.516,37.748v.015c0,.074,0,.146.006.219,0,.05,0,.1.008.15a.024.024,0,0,0,0,.008v.009c.007.085.014.169.024.252v0a5.391,5.391,0,0,0,1.166,2.764h0c.047.059.1.116.146.173l.019.022c.046.052.094.1.141.152l.034.035c.045.046.091.091.138.135l.045.043c.045.042.09.082.136.122l.056.048c.044.037.089.073.134.109l.065.051c.044.034.089.067.133.1l.074.052c.043.03.088.06.133.089l.081.053.133.08.089.052.132.072.1.049c.044.022.087.043.132.064s.067.031.1.047l.131.057.11.043.129.049.117.04.13.042.124.035.127.035.131.03c.042.009.083.019.125.027l.14.025.121.021.15.019.115.014c.058.006.115.009.172.013l.1.007c.088,0,.177.007.267.007h.007a6.441,6.441,0,0,0,5.1-1.952,6.255,6.255,0,0,0,1.478-3.795c1.278-11.72,3.62-15.652,6.889-18.891a26.853,26.853,0,0,1,17.271-7.777l.227-.014c.1-.006.2-.012.306-.016.145-.007.288-.012.433-.016l.163-.005c.213,0,.426-.008.639-.008H5928.6a26.981,26.981,0,0,0,6.054,9.233,27.072,27.072,0,0,0,34.066,3.445l15.79,15.791,2.4,2.4c.006.006.01.016.013.018a5.4,5.4,0,0,0,3.66,1.584c.061,0,.119,0,.181,0a5.4,5.4,0,0,0,3.823-1.588A5.417,5.417,0,0,0,5994.579-1420.669Zm-101.322-72a37.913,37.913,0,0,1,37.91-37.916h.017a37.912,37.912,0,0,1,37.91,37.916,37.8,37.8,0,0,1-2.979,14.761,27.075,27.075,0,0,0-31.464,4.965,26.97,26.97,0,0,0-7.9,17.932A37.917,37.917,0,0,1,5893.257-1492.669Zm72.012,50.348a16.234,16.234,0,0,1-22.96,0,16.389,16.389,0,0,1-1.382-1.571,16.216,16.216,0,0,1-3.3-11.409,16.177,16.177,0,0,1,4.686-9.983,16.238,16.238,0,0,1,18.168-3.317,16.2,16.2,0,0,1,4.792,3.317,16.234,16.234,0,0,1,3.048,4.225A16.25,16.25,0,0,1,5970-1452.9a16.174,16.174,0,0,1-4.234,10.06C5965.6-1442.665,5965.438-1442.491,5965.269-1442.321Z" transform="translate(-5866.168 1541.419)" fill="#bcbcbc"/>
</svg>
